<?xml version="1.0" encoding="UTF-8" standalone="no"?>
<svg
   xmlns:dc="http://purl.org/dc/elements/1.1/"
   xmlns:cc="http://creativecommons.org/ns#"
   xmlns:rdf="http://www.w3.org/1999/02/22-rdf-syntax-ns#"
   xmlns:svg="http://www.w3.org/2000/svg"
   xmlns="http://www.w3.org/2000/svg"
   xmlns:sodipodi="http://sodipodi.sourceforge.net/DTD/sodipodi-0.dtd"
   xmlns:inkscape="http://www.inkscape.org/namespaces/inkscape"
   width="48"
   height="48"
   viewBox="0 0 48 48"
   version="1.1"
   id="svg5690"
   sodipodi:docname="ic_directions_bike_48px.svg"
   inkscape:version="0.92.2 (5c3e80d, 2017-08-06)">
  <metadata
     id="metadata5696">
    <rdf:RDF>
      <cc:Work
         rdf:about="">
        <dc:format>image/svg+xml</dc:format>
        <dc:type
           rdf:resource="http://purl.org/dc/dcmitype/StillImage" />
      </cc:Work>
    </rdf:RDF>
  </metadata>
  <defs
     id="defs5694" />
  <sodipodi:namedview
     pagecolor="#ffffff"
     bordercolor="#666666"
     borderopacity="1"
     objecttolerance="10"
     gridtolerance="10"
     guidetolerance="10"
     inkscape:pageopacity="0"
     inkscape:pageshadow="2"
     inkscape:window-width="1920"
     inkscape:window-height="1001"
     id="namedview5692"
     showgrid="false"
     inkscape:zoom="4.9166667"
     inkscape:cx="-3.8644068"
     inkscape:cy="24"
     inkscape:window-x="-9"
     inkscape:window-y="-9"
     inkscape:window-maximized="1"
     inkscape:current-layer="svg5690" />
  <path
     d="m 31,11 c 2.2,0 4,-1.8 4,-4 0,-2.2 -1.8,-4 -4,-4 -2.2,0 -4,1.8 -4,4 0,2.2 1.8,4 4,4 z M 10,24 C 4.5,24 0,28.5 0,34 0,39.5 4.5,44 10,44 15.5,44 20,39.5 20,34 20,28.5 15.5,24 10,24 Z m 0,17 c -3.9,0 -7,-3.1 -7,-7 0,-3.9 3.1,-7 7,-7 3.9,0 7,3.1 7,7 0,3.9 -3.1,7 -7,7 z m 11.6,-19.9 4.7,-4.8 1.5,1.5 c 2.5,2.6 6,4.1 10.1,4.1 v -4 c -3,0 -5.5,-1.1 -7.3,-2.9 L 26.7,11.2 C 26.1,10.5 25.1,10 24,10 c -1.1,0 -2.1,0.4 -2.8,1.2 l -5.5,5.5 c -0.7,0.7 -1.2,1.7 -1.2,2.8 0,1.1 0.5,2.1 1.2,2.9 L 22,28 v 10 h 4 V 25.5 Z M 38,24 c -5.5,0 -10,4.5 -10,10 0,5.5 4.5,10 10,10 5.5,0 10,-4.5 10,-10 0,-5.5 -4.5,-10 -10,-10 z m 0,17 c -3.9,0 -7,-3.1 -7,-7 0,-3.9 3.1,-7 7,-7 3.9,0 7,3.1 7,7 0,3.9 -3.1,7 -7,7 z"
     id="path5688"
     style="fill:#ffd42a"
     inkscape:connector-curvature="0" />
</svg>
