<?xml version="1.0" encoding="UTF-8" standalone="no"?>
<svg
   xmlns:dc="http://purl.org/dc/elements/1.1/"
   xmlns:cc="http://creativecommons.org/ns#"
   xmlns:rdf="http://www.w3.org/1999/02/22-rdf-syntax-ns#"
   xmlns:svg="http://www.w3.org/2000/svg"
   xmlns="http://www.w3.org/2000/svg"
   xmlns:sodipodi="http://sodipodi.sourceforge.net/DTD/sodipodi-0.dtd"
   xmlns:inkscape="http://www.inkscape.org/namespaces/inkscape"
   width="48"
   height="48"
   viewBox="0 0 48 48"
   version="1.1"
   id="svg875"
   sodipodi:docname="ic_usb_48px.svg"
   inkscape:version="0.92.2 (5c3e80d, 2017-08-06)">
  <metadata
     id="metadata881">
    <rdf:RDF>
      <cc:Work
         rdf:about="">
        <dc:format>image/svg+xml</dc:format>
        <dc:type
           rdf:resource="http://purl.org/dc/dcmitype/StillImage" />
      </cc:Work>
    </rdf:RDF>
  </metadata>
  <defs
     id="defs879" />
  <sodipodi:namedview
     pagecolor="#ffffff"
     bordercolor="#666666"
     borderopacity="1"
     objecttolerance="10"
     gridtolerance="10"
     guidetolerance="10"
     inkscape:pageopacity="0"
     inkscape:pageshadow="2"
     inkscape:window-width="1920"
     inkscape:window-height="1001"
     id="namedview877"
     showgrid="false"
     inkscape:zoom="4.9166667"
     inkscape:cx="-3.8644068"
     inkscape:cy="24"
     inkscape:window-x="-9"
     inkscape:window-y="-9"
     inkscape:window-maximized="1"
     inkscape:current-layer="svg875" />
  <path
     d="m 30,14 v 8 h 2 v 4 H 26 V 10 h 4 l -6,-8 -6,8 h 4 v 16 h -6 v -4.14 c 1.41,-0.73 2.4,-2.16 2.4,-3.86 0,-2.43 -1.97,-4.4 -4.4,-4.4 -2.43,0 -4.4,1.97 -4.4,4.4 0,1.7 0.99,3.13 2.4,3.86 V 26 c 0,2.21 1.79,4 4,4 h 6 v 6.1 c -1.42,0.73 -2.4,2.19 -2.4,3.9 0,2.43 1.97,4.4 4.4,4.4 2.43,0 4.4,-1.97 4.4,-4.4 0,-1.71 -0.98,-3.17 -2.4,-3.9 V 30 h 6 c 2.21,0 4,-1.79 4,-4 v -4 h 2 v -8 z"
     id="path873"
     style="fill:#ffd42a"
     inkscape:connector-curvature="0" />
</svg>
